<?xml version="1.0" encoding="UTF-8" standalone="no"?>
<!DOCTYPE svg PUBLIC "-//W3C//DTD SVG 1.1//EN" "http://www.w3.org/Graphics/SVG/1.1/DTD/svg11.dtd">
<svg width="100%" height="100%" viewBox="0 0 1877 870" version="1.1" xmlns="http://www.w3.org/2000/svg" xmlns:xlink="http://www.w3.org/1999/xlink" xml:space="preserve" xmlns:serif="http://www.serif.com/" style="fill-rule:evenodd;clip-rule:evenodd;stroke-linecap:round;stroke-linejoin:round;stroke-miterlimit:1.5;">
    <g transform="matrix(1,0,0,1,-72.0432,-200.978)">
        <g transform="matrix(-2.12951,-2.82636,-9.3607,-1.61868,4044.88,2422.21)">
            <ellipse cx="523.049" cy="190.463" rx="149.077" ry="65.611" style="fill:rgb(242,175,13);"/>
        </g>
        <g transform="matrix(5.66612,0,0,5.66612,-1272.33,-68.0484)">
            <g transform="matrix(1,0,0,1,230.878,-224.088)">
                <path d="M213.819,316.789L211.468,316.789" style="fill:none;stroke:white;stroke-width:0.64px;"/>
            </g>
            <g transform="matrix(0.738008,0,0,0.65725,291.632,-162.583)">
                <path d="M152.673,475.461C152.673,475.461 212.786,471.042 215.02,452.644" style="fill:none;stroke:white;stroke-width:0.91px;"/>
            </g>
            <g transform="matrix(0.738008,0,0,0.696734,342.202,-202.657)">
                <path d="M146.498,484.51L133.436,410.97" style="fill:none;stroke:white;stroke-width:0.89px;"/>
            </g>
            <g transform="matrix(0.675088,0,0,0.675088,301.238,-171.064)">
                <path d="M152.673,475.461C152.673,475.461 207.689,475.19 212.297,438.913" style="fill:none;stroke:white;stroke-width:0.94px;"/>
            </g>
            <g transform="matrix(0.675088,0,0,0.675088,301.238,-171.064)">
                <path d="M152.673,475.523C152.673,475.523 202.489,463.437 201.16,433.569" style="fill:none;stroke:white;stroke-width:0.94px;"/>
            </g>
            <g transform="matrix(0.517685,0,0,0.517251,325.269,-149.005)">
                <path d="M152.673,475.523C152.673,475.523 202.489,463.437 201.16,433.569" style="fill:none;stroke:white;stroke-width:1.23px;"/>
            </g>
            <g transform="matrix(0.675088,0,0,0.675088,345.658,-188.259)">
                <path d="M124.075,390.346L135.387,459.039" style="fill:none;stroke:white;stroke-width:0.94px;"/>
            </g>
            <g transform="matrix(0.675088,0,0,0.675088,345.658,-188.259)">
                <path d="M146.498,464.383L135.387,395.954L126.691,401.745" style="fill:none;stroke:white;stroke-width:0.94px;"/>
            </g>
            <g transform="matrix(0.749936,-0.0774244,0,0.675088,339.46,-182.183)">
                <path d="M91.213,422.491L91.213,500.931" style="fill:none;stroke:white;stroke-width:0.94px;"/>
            </g>
            <g transform="matrix(1.41683,-0.146275,0,1.27542,238.567,-472.509)">
                <path d="M119.957,500.961L151.288,500.999" style="fill:none;stroke:white;stroke-width:0.5px;"/>
            </g>
            <g transform="matrix(0.767654,0,0,0.675088,337.617,-188.259)">
                <path d="M86.874,500.993L90.596,505.886" style="fill:none;stroke:white;stroke-width:0.88px;"/>
            </g>
            <g transform="matrix(0.767654,0,0,0.675088,337.617,-188.259)">
                <path d="M90.596,505.886L151.48,499.931" style="fill:none;stroke:white;stroke-width:0.88px;"/>
            </g>
            <g transform="matrix(0.695698,0,0,0.611809,348.085,-161.923)">
                <path d="M151.48,499.931L139.49,416.183" style="fill:none;stroke:white;stroke-width:0.97px;"/>
            </g>
            <g transform="matrix(0.675088,0,0,0.675088,345.658,-188.259)">
                <path d="M89.647,504.268L159.09,497.498" style="fill:none;stroke:white;stroke-width:0.94px;"/>
            </g>
            <g transform="matrix(0.687696,0,0,0.675088,343.64,-189.704)">
                <path d="M89.647,504.268L158.902,497.516" style="fill:none;stroke:white;stroke-width:0.94px;"/>
            </g>
            <g transform="matrix(0.675088,0,0,0.675088,345.658,-188.259)">
                <path d="M141.057,402.819L136.769,402.819" style="fill:none;stroke:white;stroke-width:0.94px;"/>
            </g>
            <path d="M409.561,95.491L409.561,148.927" style="fill:none;stroke:white;stroke-width:0.64px;"/>
            <path d="M454.025,149.121C454.025,149.121 452.177,147.956 453.469,143.939" style="fill:none;stroke:white;stroke-width:0.64px;"/>
        </g>
        <g transform="matrix(6.93333,0,0,6.93333,-569.824,-257.147)">
            <g transform="matrix(64,0,0,64,93.281,152.058)">
                <path d="M0.654,-0.687C0.654,-0.682 0.648,-0.679 0.635,-0.678C0.606,-0.677 0.586,-0.673 0.576,-0.665C0.566,-0.657 0.556,-0.638 0.545,-0.609L0.511,-0.516C0.429,-0.291 0.371,-0.119 0.338,0.001C0.336,0.009 0.333,0.013 0.328,0.013C0.323,0.013 0.312,-0.012 0.295,-0.062C0.265,-0.153 0.242,-0.222 0.225,-0.268C0.207,-0.319 0.18,-0.394 0.145,-0.495L0.097,-0.63C0.09,-0.649 0.083,-0.661 0.075,-0.668C0.067,-0.674 0.054,-0.677 0.035,-0.678C0.013,-0.679 0,-0.679 -0.005,-0.68C-0.009,-0.681 -0.011,-0.683 -0.011,-0.688C-0.011,-0.694 -0.004,-0.697 0.009,-0.697L0.018,-0.697C0.03,-0.697 0.051,-0.697 0.081,-0.696C0.11,-0.695 0.131,-0.694 0.144,-0.694C0.147,-0.694 0.16,-0.695 0.183,-0.696C0.205,-0.697 0.237,-0.697 0.278,-0.697L0.292,-0.697C0.304,-0.697 0.31,-0.694 0.31,-0.687C0.31,-0.68 0.298,-0.676 0.274,-0.675L0.213,-0.673C0.199,-0.672 0.192,-0.668 0.192,-0.66C0.192,-0.659 0.193,-0.656 0.194,-0.652L0.202,-0.626C0.203,-0.621 0.236,-0.527 0.299,-0.344C0.31,-0.313 0.33,-0.253 0.36,-0.165C0.47,-0.476 0.525,-0.64 0.525,-0.656C0.525,-0.672 0.509,-0.679 0.476,-0.678L0.445,-0.677C0.437,-0.677 0.433,-0.68 0.433,-0.685C0.433,-0.692 0.443,-0.695 0.463,-0.695L0.497,-0.695C0.516,-0.694 0.529,-0.694 0.538,-0.694L0.57,-0.694L0.636,-0.695C0.648,-0.695 0.654,-0.692 0.654,-0.687Z" style="fill-rule:nonzero;"/>
            </g>
            <g transform="matrix(64,0,0,64,133.793,152.058)">
                <path d="M0.167,-0.629C0.167,-0.599 0.152,-0.584 0.122,-0.584C0.109,-0.584 0.099,-0.588 0.09,-0.597C0.081,-0.605 0.077,-0.615 0.077,-0.627C0.077,-0.658 0.092,-0.674 0.122,-0.674C0.152,-0.674 0.167,-0.659 0.167,-0.629ZM0.242,-0.006C0.242,0 0.236,0.003 0.225,0.003C0.226,0.003 0.218,0.002 0.201,0.001C0.181,0 0.164,-0.001 0.151,-0.001L0.047,0.001C0.044,0.002 0.04,0.002 0.035,0.002C0.028,0.002 0.024,0 0.024,-0.005C0.024,-0.012 0.031,-0.015 0.044,-0.015C0.069,-0.016 0.083,-0.018 0.086,-0.021C0.088,-0.024 0.089,-0.037 0.089,-0.062L0.088,-0.365C0.087,-0.382 0.087,-0.392 0.086,-0.395C0.085,-0.398 0.08,-0.399 0.073,-0.399L0.044,-0.398C0.041,-0.397 0.038,-0.397 0.034,-0.397C0.027,-0.397 0.023,-0.4 0.023,-0.405C0.023,-0.41 0.029,-0.412 0.04,-0.413C0.085,-0.415 0.123,-0.426 0.155,-0.445L0.165,-0.451C0.17,-0.441 0.173,-0.423 0.173,-0.396C0.173,-0.397 0.173,-0.394 0.173,-0.386C0.172,-0.378 0.172,-0.365 0.172,-0.347L0.172,-0.074C0.172,-0.047 0.173,-0.032 0.174,-0.027C0.175,-0.022 0.178,-0.019 0.184,-0.018C0.194,-0.015 0.209,-0.014 0.228,-0.014C0.237,-0.014 0.242,-0.011 0.242,-0.006Z" style="fill-rule:nonzero;"/>
            </g>
            <g transform="matrix(64,0,0,64,149.857,152.058)">
                <path d="M0.337,-0.38C0.337,-0.365 0.332,-0.352 0.323,-0.342C0.314,-0.332 0.302,-0.327 0.287,-0.327C0.275,-0.327 0.265,-0.331 0.257,-0.338C0.249,-0.345 0.245,-0.353 0.245,-0.364C0.245,-0.373 0.248,-0.381 0.254,-0.388C0.26,-0.395 0.263,-0.399 0.263,-0.402C0.263,-0.412 0.256,-0.417 0.241,-0.417C0.222,-0.417 0.206,-0.405 0.193,-0.382C0.178,-0.355 0.17,-0.304 0.17,-0.23L0.17,-0.032C0.17,-0.024 0.173,-0.019 0.179,-0.017C0.184,-0.015 0.201,-0.014 0.23,-0.013C0.237,-0.012 0.241,-0.009 0.241,-0.005C0.241,0 0.237,0.002 0.228,0.002C0.213,0.002 0.198,0.002 0.185,0.001C0.172,0 0.146,0 0.109,0C0.09,0 0.076,0 0.067,0.001C0.058,0.002 0.047,0.002 0.034,0.002C0.023,0.002 0.018,0 0.018,-0.005C0.018,-0.01 0.022,-0.012 0.031,-0.012L0.045,-0.012C0.068,-0.012 0.081,-0.015 0.085,-0.02C0.086,-0.023 0.087,-0.035 0.087,-0.057L0.087,-0.332C0.087,-0.369 0.082,-0.39 0.071,-0.396C0.059,-0.401 0.042,-0.404 0.018,-0.405C0.01,-0.405 0.006,-0.407 0.006,-0.412C0.006,-0.417 0.009,-0.419 0.016,-0.419L0.023,-0.419C0.033,-0.419 0.043,-0.419 0.053,-0.418C0.063,-0.417 0.067,-0.416 0.066,-0.416C0.091,-0.416 0.118,-0.423 0.148,-0.437L0.161,-0.443L0.169,-0.446C0.172,-0.43 0.173,-0.414 0.173,-0.398L0.173,-0.378C0.194,-0.425 0.224,-0.448 0.263,-0.448C0.284,-0.448 0.302,-0.442 0.316,-0.429C0.33,-0.416 0.337,-0.399 0.337,-0.38Z" style="fill-rule:nonzero;"/>
            </g>
            <g transform="matrix(64,0,0,64,171.489,152.058)">
                <path d="M0.303,-0.059C0.303,-0.053 0.295,-0.042 0.278,-0.027C0.249,-0.001 0.215,0.012 0.176,0.012C0.139,0.012 0.112,0.003 0.093,-0.016C0.082,-0.027 0.077,-0.058 0.077,-0.11L0.077,-0.408C0.076,-0.415 0.073,-0.418 0.066,-0.419L0.028,-0.419C0.013,-0.419 0.006,-0.421 0.006,-0.426C0.006,-0.431 0.01,-0.433 0.017,-0.434C0.069,-0.439 0.11,-0.464 0.139,-0.51C0.143,-0.516 0.148,-0.519 0.154,-0.519C0.159,-0.519 0.161,-0.517 0.161,-0.512L0.161,-0.508C0.16,-0.505 0.16,-0.499 0.16,-0.491C0.16,-0.463 0.161,-0.445 0.164,-0.437C0.17,-0.436 0.18,-0.435 0.194,-0.435C0.231,-0.435 0.255,-0.437 0.267,-0.44C0.27,-0.441 0.272,-0.441 0.274,-0.441C0.279,-0.441 0.282,-0.438 0.282,-0.432C0.282,-0.422 0.255,-0.417 0.201,-0.417C0.192,-0.417 0.178,-0.417 0.16,-0.418L0.16,-0.233C0.16,-0.14 0.162,-0.081 0.167,-0.058C0.172,-0.034 0.187,-0.022 0.213,-0.022C0.235,-0.022 0.26,-0.034 0.287,-0.059C0.29,-0.062 0.293,-0.064 0.296,-0.064C0.301,-0.064 0.303,-0.062 0.303,-0.059Z" style="fill-rule:nonzero;"/>
            </g>
            <g transform="matrix(64,0,0,64,189.665,152.058)">
                <path d="M0.45,-0.216C0.45,-0.151 0.43,-0.097 0.391,-0.054C0.352,-0.01 0.303,0.012 0.244,0.012C0.183,0.012 0.133,-0.01 0.092,-0.054C0.051,-0.097 0.031,-0.151 0.031,-0.216C0.031,-0.283 0.051,-0.338 0.091,-0.382C0.13,-0.426 0.18,-0.448 0.239,-0.448C0.299,-0.448 0.349,-0.426 0.39,-0.382C0.43,-0.337 0.45,-0.282 0.45,-0.216ZM0.359,-0.217C0.359,-0.29 0.348,-0.347 0.325,-0.388C0.308,-0.418 0.28,-0.433 0.241,-0.433C0.204,-0.433 0.174,-0.414 0.154,-0.376C0.132,-0.337 0.122,-0.284 0.122,-0.216C0.122,-0.149 0.133,-0.096 0.156,-0.059C0.178,-0.021 0.209,-0.002 0.249,-0.002C0.28,-0.002 0.302,-0.014 0.317,-0.037C0.345,-0.081 0.359,-0.141 0.359,-0.217Z" style="fill-rule:nonzero;"/>
            </g>
        </g>
        <g transform="matrix(6.93333,0,0,6.93333,-569.824,-250.213)">
            <g>
                <g transform="matrix(0.551701,0,0,0.551701,181.159,-125.967)">
                    <path d="M86.874,500.931C89.161,475.112 90.604,449.173 86.874,422.491" style="fill:none;stroke:black;stroke-width:5.08px;"/>
                </g>
                <g transform="matrix(1,0,0,1,-184.317,8.53734)">
                    <path d="M414.137,141.86L437.924,140.097" style="fill:none;stroke:black;stroke-width:2.8px;"/>
                </g>
            </g>
            <g>
                <g transform="matrix(1,0,0,1,-190.317,9.53734)">
                    <path d="M461.692,111.873L461.692,136.951" style="fill:none;stroke:black;stroke-width:2.8px;"/>
                </g>
                <g transform="matrix(1,0,0,1,-190.317,9.53734)">
                    <path d="M458.172,140.097C458.172,140.097 460.132,137.361 466.589,140.097" style="fill:none;stroke:black;stroke-width:2.8px;"/>
                </g>
                <g transform="matrix(6.11568,0,0,0.901924,-2554.29,15.9979)">
                    <ellipse cx="462.036" cy="107.386" rx="0.344" ry="1.072" style="stroke:black;stroke-width:0.64px;"/>
                </g>
            </g>
            <g transform="matrix(1,0,0,1,-190.317,9.53734)">
                <path d="M478.66,94.209L478.66,140.097L478.66,117.153C478.66,117.153 492.446,108.938 497.498,117.153C502.55,125.368 498.682,139.222 478.66,140.097" style="fill:none;stroke:black;stroke-width:2.8px;"/>
            </g>
            <g transform="matrix(1,0,0,1,-190.317,10.5373)">
                <path d="M504.658,139.073L518.002,139.073" style="fill:none;stroke:black;stroke-width:2.8px;"/>
            </g>
            <g transform="matrix(1,0,0,1,-190.317,10.5373)">
                <path d="M511.33,139.073L511.33,111.873" style="fill:none;stroke:black;stroke-width:2.8px;"/>
            </g>
            <g transform="matrix(1,0,0,1,-190.317,10.5373)">
                <path d="M511.33,117.153C511.33,117.153 519.919,111.295 522.19,114.404" style="fill:none;stroke:black;stroke-width:2.8px;"/>
            </g>
            <g>
                <g transform="matrix(1,0,0,1,-190.317,11.5373)">
                    <path d="M531.89,119.091C531.89,119.091 527.934,106.824 542.912,113.494" style="fill:none;stroke:black;stroke-width:2.8px;"/>
                </g>
                <g transform="matrix(1,0,0,1,-190.317,11.5373)">
                    <path d="M542.912,113.494C542.912,113.494 540.356,140.582 552.114,137.217" style="fill:none;stroke:black;stroke-width:2.8px;"/>
                </g>
                <g transform="matrix(1,0,0,1,-191.317,11.5373)">
                    <path d="M542.677,123.702C542.677,123.702 526.667,128.093 530.064,135.786" style="fill:none;stroke:black;stroke-width:2.8px;"/>
                </g>
                <g transform="matrix(1,0,0,1,-191.317,11.5373)">
                    <path d="M530.064,135.786C530.064,135.786 536.332,142.02 545.396,133.283" style="fill:none;stroke:black;stroke-width:2.8px;"/>
                </g>
            </g>
        </g>
    </g>
</svg>
